<?xml version="1.0" encoding="utf-8"?>
<!-- Generator: Adobe Illustrator 21.1.0, SVG Export Plug-In . SVG Version: 6.00 Build 0)  -->
<svg version="1.1" id="Layer_1" xmlns="http://www.w3.org/2000/svg" xmlns:xlink="http://www.w3.org/1999/xlink" x="0px" y="0px"
	 width="13.7px" height="19.1px" viewBox="0 0 13.7 19.1" style="enable-background:new 0 0 13.7 19.1;" xml:space="preserve">
<style type="text/css">
	.st0{display:none;}
	.st1{display:inline;fill:#272D59;}
	.st2{fill:none;}
	.st3{fill:#F87762;}
	.st4{fill:#FFFFFF;}
	.st5{fill:#9E9E9E;}
</style>
<g id="Layer_2" class="st0">
	<rect x="-4.5" y="-1.1" class="st1" width="83.8" height="21.3"/>
</g>
<g>
	<path class="st2" d="M7.6,2.2c-0.1,0-0.1,0-0.2,0C7.2,2.3,6.2,2.7,5.3,3.3c0,0,1.7-0.4,2.2-0.6c0.1,0,0.1,0,0.2,0
		c0.5,0.2,3.7,1.2,4.2,4.6C11.8,7.3,12.7,3.5,7.6,2.2z"/>
	<path class="st2" d="M4.3,7.6C4.1,7.9,4,8.3,4,8.7C4,8.8,4,9,4,9.1c0,0.1,0,0.1,0,0.2c0.1,0.3,0.3,0.6,0.5,0.8s0.4,0.3,0.6,0.4
		c0.1,0.1,0.3,0.1,0.4,0.1s0.3,0,0.4,0l0,0l0,0c1,0,1.9-0.7,2-1.7c0-0.1,0-0.2,0-0.3V8.5l0,0L6.2,7.4C5.8,7.3,5.4,7.1,5.1,6.9
		c0,0,0,0-0.1,0C4.7,7.1,4.5,7.3,4.3,7.6z"/>
	<path class="st3" d="M11,0.8C8.8-0.6,5.8-0.1,3.8,1.7C3.7,1.8,3.6,1.9,3.6,2c0,0.1,0,0.3,0,0.4c1-0.9,2.2-1.6,3.6-1.8
		c0.8-0.1,1.6,0,2.4,0.2C10.4,1,11.1,1.5,11.7,2c0.6,0.6,1,1.3,1.3,2c0.3,0.8,0.4,1.6,0.4,2.4c0,0.2,0,0.4,0,0.6s0,0.4-0.1,0.6
		l-0.1,0.3c0.2-0.1,0.3-0.3,0.3-0.5C14.2,4.8,13.2,2.2,11,0.8z"/>
	<path class="st4" d="M8,9c-0.2,1-1,1.7-2,1.7l0,0l0,0l0,0H5.9c-1.2-0.1-2.2-1-2.2-2.3c0-0.4,0.1-0.7,0.2-1C2.9,7.1,2,6.8,1.1,6.6
		c-0.3,0.6-0.4,1.3-0.4,2l0,0c0,0.1,0,0.3,0,0.4l0,0c0,0.3,0.2,1,0.5,1.8l0,0c0.6,1.6,1.8,4,4.4,7.7c0.9-1,3.1-3.9,4.9-8.5
		C10.1,9.9,9.2,9.5,8,9z"/>
	<path class="st4" d="M10.5,11.7c0.2-0.5,0.4-1,0.5-1.4l0,0C10.9,10.8,10.7,11.2,10.5,11.7z"/>
	<path class="st5" d="M10.6,10.1c-1.9,4.6-4,7.4-4.9,8.5l0,0c0.1,0.2,0.2,0.3,0.3,0.5c0,0,0.1-0.2,0.4-0.5c0.2-0.2,0.4-0.5,0.6-0.8
		c1-1.4,2.6-3.8,3.6-6c0.2-0.5,0.4-1,0.5-1.4C11,10.3,10.9,10.2,10.6,10.1z"/>
	<path class="st5" d="M5.2,10.5c-0.2-0.1-0.5-0.3-0.6-0.4C4.3,9.8,4.1,9.6,4,9.3c0-0.1,0-0.1,0-0.2C4,9,4,8.8,4,8.7
		c0-0.4,0.1-0.8,0.3-1.1l0,0C4.1,7.5,4,7.5,3.8,7.4C3.7,7.7,3.6,8,3.6,8.4c0,1.2,1,2.2,2.2,2.3h0.1l0,0c-0.1,0-0.3,0-0.4,0
		C5.4,10.6,5.3,10.6,5.2,10.5z"/>
	<path class="st5" d="M8,8.6C8,8.8,8,8.9,8,9c1.2,0.5,2.1,0.9,2.6,1.1c0.3,0.1,0.4,0.2,0.4,0.2l0,0l0,0L8,8.5C8,8.6,8,8.6,8,8.6z"/>
	<path class="st5" d="M4.3,7.6C4.3,7.5,4.3,7.6,4.3,7.6C4.5,7.3,4.7,7.1,5,6.9l0,0C4.8,6.8,4.6,6.8,4.5,6.7c-1-0.4-1.9-0.8-2.6-1.2
		l0,0l0,0c-0.2,0-0.2,0.1-0.3,0.2C1.5,5.9,1.4,6.1,1.3,6.3c0,0.1-0.1,0.1-0.1,0.2S1.1,6.7,1.1,6.7C2,6.8,2.9,7.1,3.8,7.4
		C4,7.5,4.1,7.5,4.3,7.6z"/>
	<path class="st3" d="M10.4,1.8C7.9,0.3,4.3,1.2,2.2,3.9C1,3.6,0.2,3.6,0,3.9c-0.1,0.3,0.6,0.9,1.8,1.5l0,0l0,0
		c0.7,0.4,1.6,0.8,2.6,1.2C4.6,6.8,4.8,6.8,5,6.9l0,0c0,0,0,0,0.1,0c0.4,0.2,0.8,0.3,1.2,0.5L8,8.5l0,0l3,1.8l0.8,0.5
		C13.9,7.5,13.3,3.5,10.4,1.8z M11.8,7.3c-0.5-3.4-3.6-4.5-4.2-4.6c-0.1,0-0.1,0-0.2,0C7,2.9,5.3,3.3,5.3,3.3c0.9-0.6,1.9-1,2.2-1.1
		c0.1,0,0.1,0,0.2,0C12.7,3.5,11.8,7.3,11.8,7.3z"/>
</g>
</svg>
